<svg xmlns="http://www.w3.org/2000/svg" xmlns:xlink="http://www.w3.org/1999/xlink" width="110" height="110" x="0" y="0" version="1.0" viewBox="0 0 110 110" xml:space="preserve" style="enable-background:new 0 0 110 110"><g id="Artboard" style="display:none"><rect style="display:inline;fill:gray" width="1376" height="359" x="-963" y="-178"/></g><g id="R-Multicolor" style="display:none"><circle style="display:inline;fill:#32bea6" cx="55" cy="55" r="55"/><g style="display:inline"><path style="fill:#edbc7c" d="M83.879,79.879C83.316,79.316,82.553,79,81.757,79H28.243c-0.795,0-1.559,0.316-2.122,0.879L23,83 v4h64v-4L83.879,79.879z"/><path style="fill:#f8e1c2" d="M23,83l3.121-3.121C26.684,79.316,27.447,79,28.243,79h53.515c0.796,0,1.559,0.316,2.121,0.879 L87,83H23z"/><circle style="fill:#facb1b" cx="31" cy="31" r="8"/><path style="fill:#107665" d="M76,35c-3.59,0-6,2.81-6,5.94v4.08c0,1.09-0.89,1.98-1.98,1.98h-0.04C66.89,47,66,46.11,66,45.02 V31c0-4.42-3.58-8-8-8s-8,3.58-8,8v22.02c0,1.09-0.89,1.98-1.98,1.98h-0.04C46.89,55,46,54.11,46,53.02v-4.08 c0-3.248-2.54-5.94-6-5.94c-3.427,0-6,2.658-6,5.94v10.21C34,71.17,50,66.83,50,79v4h16V71c0-12.17,16-7.83,16-19.85V40.94 C82,37.66,79.28,35,76,35z"/><path style="fill:#0d9681" d="M50,31v22.02c0,1.09-0.89,1.98-1.98,1.98h-0.04C46.89,55,46,54.11,46,53.02v-4.08 c0-3.248-2.54-5.94-6-5.94c-3.427,0-6,2.658-6,5.94v10.21C34,71.17,50,66.83,50,79v4h8V23C53.58,23,50,26.58,50,31z"/></g></g><g id="Multicolor"><g><path style="fill:#edbc7c" d="M83.879,79.879C83.316,79.316,82.553,79,81.757,79H28.243c-0.795,0-1.559,0.316-2.122,0.879L23,83 v4h64v-4L83.879,79.879z"/><path style="fill:#f8e1c2" d="M23,83l3.121-3.121C26.684,79.316,27.447,79,28.243,79h53.515c0.796,0,1.559,0.316,2.121,0.879 L87,83H23z"/><circle style="fill:#facb1b" cx="31" cy="31" r="8"/><path style="fill:#107665" d="M76,35c-3.59,0-6,2.81-6,5.94v4.08c0,1.09-0.89,1.98-1.98,1.98h-0.04C66.89,47,66,46.11,66,45.02 V31c0-4.42-3.58-8-8-8s-8,3.58-8,8v22.02c0,1.09-0.89,1.98-1.98,1.98h-0.04C46.89,55,46,54.11,46,53.02v-4.08 c0-3.248-2.54-5.94-6-5.94c-3.427,0-6,2.658-6,5.94v10.21C34,71.17,50,66.83,50,79v4h16V71c0-12.17,16-7.83,16-19.85V40.94 C82,37.66,79.28,35,76,35z"/><path style="fill:#0d9681" d="M50,31v22.02c0,1.09-0.89,1.98-1.98,1.98h-0.04C46.89,55,46,54.11,46,53.02v-4.08 c0-3.248-2.54-5.94-6-5.94c-3.427,0-6,2.658-6,5.94v10.21C34,71.17,50,66.83,50,79v4h8V23C53.58,23,50,26.58,50,31z"/></g></g><g id="Blue" style="display:none"><g style="display:inline"><g><path style="fill:#53bad4" d="M83.879,79.879C83.316,79.316,82.553,79,81.757,79H28.243c-0.795,0-1.559,0.316-2.122,0.879L23,83 v4h64v-4L83.879,79.879z"/></g><g><path style="fill:#bbe7f2" d="M23,83l3.121-3.121C26.684,79.316,27.447,79,28.243,79h53.515c0.795,0,1.559,0.316,2.122,0.879 L87,83H23z"/></g><g><circle style="fill:#fff" cx="31" cy="31" r="8"/></g><g><path style="fill:#0081a1" d="M76,35c-3.59,0-6,2.81-6,5.94v4.08c0,1.09-0.89,1.98-1.98,1.98h-0.04C66.89,47,66,46.11,66,45.02 V31c0-4.42-3.58-8-8-8s-8,3.58-8,8v22.02c0,1.09-0.89,1.98-1.98,1.98h-0.04C46.89,55,46,54.11,46,53.02v-4.08 c0-3.247-2.54-5.94-6-5.94c-3.427,0-6,2.658-6,5.94v10.21C34,71.17,50,66.83,50,79v4h16V71c0-12.17,16-7.83,16-19.85V40.94 C82,37.66,79.28,35,76,35z"/></g><g><path style="fill:#009fc7" d="M50,31v22.02c0,1.09-0.89,1.98-1.98,1.98h-0.04C46.89,55,46,54.11,46,53.02v-4.08 c0-3.247-2.54-5.94-6-5.94c-3.427,0-6,2.658-6,5.94v10.21C34,71.17,50,66.83,50,79v4h8V23C53.58,23,50,26.58,50,31z"/></g></g></g><g id="R-Blue" style="display:none"><g style="display:inline"><circle style="fill:#81d2eb" cx="55" cy="55" r="55"/></g><g style="display:inline"><g><path style="fill:#53bad4" d="M83.879,79.879C83.316,79.316,82.553,79,81.757,79H28.243c-0.795,0-1.559,0.316-2.122,0.879L23,83 v4h64v-4L83.879,79.879z"/></g><g><path style="fill:#bbe7f2" d="M23,83l3.121-3.121C26.684,79.316,27.447,79,28.243,79h53.515c0.795,0,1.559,0.316,2.122,0.879 L87,83H23z"/></g><g><circle style="fill:#fff" cx="31" cy="31" r="8"/></g><g><path style="fill:#0081a1" d="M76,35c-3.59,0-6,2.81-6,5.94v4.08c0,1.09-0.89,1.98-1.98,1.98h-0.04C66.89,47,66,46.11,66,45.02 V31c0-4.42-3.58-8-8-8s-8,3.58-8,8v22.02c0,1.09-0.89,1.98-1.98,1.98h-0.04C46.89,55,46,54.11,46,53.02v-4.08 c0-3.247-2.54-5.94-6-5.94c-3.427,0-6,2.658-6,5.94v10.21C34,71.17,50,66.83,50,79v4h16V71c0-12.17,16-7.83,16-19.85V40.94 C82,37.66,79.28,35,76,35z"/></g><g><path style="fill:#009fc7" d="M50,31v22.02c0,1.09-0.89,1.98-1.98,1.98h-0.04C46.89,55,46,54.11,46,53.02v-4.08 c0-3.247-2.54-5.94-6-5.94c-3.427,0-6,2.658-6,5.94v10.21C34,71.17,50,66.83,50,79v4h8V23C53.58,23,50,26.58,50,31z"/></g></g></g><g id="Green" style="display:none"><g style="display:inline"><g><path style="fill:#5dcfc3" d="M83.879,79.879C83.316,79.316,82.553,79,81.757,79H28.243c-0.795,0-1.559,0.316-2.122,0.879L23,83 v4h64v-4L83.879,79.879z"/></g><g><path style="fill:#aaf0e9" d="M23,83l3.121-3.121C26.684,79.316,27.447,79,28.243,79h53.515c0.795,0,1.559,0.316,2.122,0.879 L87,83H23z"/></g><g><circle style="fill:#fff" cx="31" cy="31" r="8"/></g><g><path style="fill:#009687" d="M76,35c-3.59,0-6,2.81-6,5.94v4.08c0,1.09-0.89,1.98-1.98,1.98h-0.04C66.89,47,66,46.11,66,45.02 V31c0-4.42-3.58-8-8-8s-8,3.58-8,8v22.02c0,1.09-0.89,1.98-1.98,1.98h-0.04C46.89,55,46,54.11,46,53.02v-4.08 c0-3.247-2.54-5.94-6-5.94c-3.427,0-6,2.658-6,5.94v10.21C34,71.17,50,66.83,50,79v4h16V71c0-12.17,16-7.83,16-19.85V40.94 C82,37.66,79.28,35,76,35z"/></g><g><path style="fill:#00b8a5" d="M50,31v22.02c0,1.09-0.89,1.98-1.98,1.98h-0.04C46.89,55,46,54.11,46,53.02v-4.08 c0-3.247-2.54-5.94-6-5.94c-3.427,0-6,2.658-6,5.94v10.21C34,71.17,50,66.83,50,79v4h8V23C53.58,23,50,26.58,50,31z"/></g></g></g><g id="R-Green" style="display:none"><g style="display:inline"><circle style="fill:#87e0c8" cx="55" cy="55" r="55"/></g><g style="display:inline"><g><path style="fill:#5dcfc3" d="M83.879,79.879C83.316,79.316,82.553,79,81.757,79H28.243c-0.795,0-1.559,0.316-2.122,0.879L23,83 v4h64v-4L83.879,79.879z"/></g><g><path style="fill:#aaf0e9" d="M23,83l3.121-3.121C26.684,79.316,27.447,79,28.243,79h53.515c0.795,0,1.559,0.316,2.122,0.879 L87,83H23z"/></g><g><circle style="fill:#fff" cx="31" cy="31" r="8"/></g><g><path style="fill:#009687" d="M76,35c-3.59,0-6,2.81-6,5.94v4.08c0,1.09-0.89,1.98-1.98,1.98h-0.04C66.89,47,66,46.11,66,45.02 V31c0-4.42-3.58-8-8-8s-8,3.58-8,8v22.02c0,1.09-0.89,1.98-1.98,1.98h-0.04C46.89,55,46,54.11,46,53.02v-4.08 c0-3.247-2.54-5.94-6-5.94c-3.427,0-6,2.658-6,5.94v10.21C34,71.17,50,66.83,50,79v4h16V71c0-12.17,16-7.83,16-19.85V40.94 C82,37.66,79.28,35,76,35z"/></g><g><path style="fill:#00b8a5" d="M50,31v22.02c0,1.09-0.89,1.98-1.98,1.98h-0.04C46.89,55,46,54.11,46,53.02v-4.08 c0-3.247-2.54-5.94-6-5.94c-3.427,0-6,2.658-6,5.94v10.21C34,71.17,50,66.83,50,79v4h8V23C53.58,23,50,26.58,50,31z"/></g></g></g><g id="Red" style="display:none"><g style="display:inline"><g><path style="fill:#e8a099" d="M83.879,79.879C83.316,79.316,82.553,79,81.757,79H28.243c-0.795,0-1.559,0.316-2.122,0.879L23,83 v4h64v-4L83.879,79.879z"/></g><g><path style="fill:#ffd7d4" d="M23,83l3.121-3.121C26.684,79.316,27.447,79,28.243,79h53.515c0.795,0,1.559,0.316,2.122,0.879 L87,83H23z"/></g><g><circle style="fill:#fff" cx="31" cy="31" r="8"/></g><g><path style="fill:#c23023" d="M76,35c-3.59,0-6,2.81-6,5.94v4.08c0,1.09-0.89,1.98-1.98,1.98h-0.04C66.89,47,66,46.11,66,45.02 V31c0-4.42-3.58-8-8-8s-8,3.58-8,8v22.02c0,1.09-0.89,1.98-1.98,1.98h-0.04C46.89,55,46,54.11,46,53.02v-4.08 c0-3.247-2.54-5.94-6-5.94c-3.427,0-6,2.658-6,5.94v10.21C34,71.17,50,66.83,50,79v4h16V71c0-12.17,16-7.83,16-19.85V40.94 C82,37.66,79.28,35,76,35z"/></g><g><path style="fill:#e54b44" d="M50,31v22.02c0,1.09-0.89,1.98-1.98,1.98h-0.04C46.89,55,46,54.11,46,53.02v-4.08 c0-3.247-2.54-5.94-6-5.94c-3.427,0-6,2.658-6,5.94v10.21C34,71.17,50,66.83,50,79v4h8V23C53.58,23,50,26.58,50,31z"/></g></g></g><g id="R-Red" style="display:none"><g style="display:inline"><circle style="fill:#fabbaf" cx="55" cy="55" r="55"/></g><g style="display:inline"><g><path style="fill:#e8a099" d="M83.879,79.879C83.316,79.316,82.553,79,81.757,79H28.243c-0.795,0-1.559,0.316-2.122,0.879L23,83 v4h64v-4L83.879,79.879z"/></g><g><path style="fill:#ffd7d4" d="M23,83l3.121-3.121C26.684,79.316,27.447,79,28.243,79h53.515c0.795,0,1.559,0.316,2.122,0.879 L87,83H23z"/></g><g><circle style="fill:#fff" cx="31" cy="31" r="8"/></g><g><path style="fill:#c23023" d="M76,35c-3.59,0-6,2.81-6,5.94v4.08c0,1.09-0.89,1.98-1.98,1.98h-0.04C66.89,47,66,46.11,66,45.02 V31c0-4.42-3.58-8-8-8s-8,3.58-8,8v22.02c0,1.09-0.89,1.98-1.98,1.98h-0.04C46.89,55,46,54.11,46,53.02v-4.08 c0-3.247-2.54-5.94-6-5.94c-3.427,0-6,2.658-6,5.94v10.21C34,71.17,50,66.83,50,79v4h16V71c0-12.17,16-7.83,16-19.85V40.94 C82,37.66,79.28,35,76,35z"/></g><g><path style="fill:#e54b44" d="M50,31v22.02c0,1.09-0.89,1.98-1.98,1.98h-0.04C46.89,55,46,54.11,46,53.02v-4.08 c0-3.247-2.54-5.94-6-5.94c-3.427,0-6,2.658-6,5.94v10.21C34,71.17,50,66.83,50,79v4h8V23C53.58,23,50,26.58,50,31z"/></g></g></g><g id="Yellow" style="display:none"><g style="display:inline"><g><path style="fill:#f5c43d" d="M83.879,79.879C83.316,79.316,82.553,79,81.757,79H28.243c-0.795,0-1.559,0.316-2.122,0.879L23,83 v4h64v-4L83.879,79.879z"/></g><g><path style="fill:#ffe9a1" d="M23,83l3.121-3.121C26.684,79.316,27.447,79,28.243,79h53.515c0.795,0,1.559,0.316,2.122,0.879 L87,83H23z"/></g><g><circle style="fill:#fff" cx="31" cy="31" r="8"/></g><g><path style="fill:#e07000" d="M76,35c-3.59,0-6,2.81-6,5.94v4.08c0,1.09-0.89,1.98-1.98,1.98h-0.04C66.89,47,66,46.11,66,45.02 V31c0-4.42-3.58-8-8-8s-8,3.58-8,8v22.02c0,1.09-0.89,1.98-1.98,1.98h-0.04C46.89,55,46,54.11,46,53.02v-4.08 c0-3.247-2.54-5.94-6-5.94c-3.427,0-6,2.658-6,5.94v10.21C34,71.17,50,66.83,50,79v4h16V71c0-12.17,16-7.83,16-19.85V40.94 C82,37.66,79.28,35,76,35z"/></g><g><path style="fill:#fa9200" d="M50,31v22.02c0,1.09-0.89,1.98-1.98,1.98h-0.04C46.89,55,46,54.11,46,53.02v-4.08 c0-3.247-2.54-5.94-6-5.94c-3.427,0-6,2.658-6,5.94v10.21C34,71.17,50,66.83,50,79v4h8V23C53.58,23,50,26.58,50,31z"/></g></g></g><g id="R-Yellow" style="display:none"><g style="display:inline"><circle style="fill:#ffd75e" cx="55" cy="55" r="55"/></g><g style="display:inline"><g><path style="fill:#f5c43d" d="M83.879,79.879C83.316,79.316,82.553,79,81.757,79H28.243c-0.795,0-1.559,0.316-2.122,0.879L23,83 v4h64v-4L83.879,79.879z"/></g><g><path style="fill:#ffe9a1" d="M23,83l3.121-3.121C26.684,79.316,27.447,79,28.243,79h53.515c0.795,0,1.559,0.316,2.122,0.879 L87,83H23z"/></g><g><circle style="fill:#fff" cx="31" cy="31" r="8"/></g><g><path style="fill:#e07000" d="M76,35c-3.59,0-6,2.81-6,5.94v4.08c0,1.09-0.89,1.98-1.98,1.98h-0.04C66.89,47,66,46.11,66,45.02 V31c0-4.42-3.58-8-8-8s-8,3.58-8,8v22.02c0,1.09-0.89,1.98-1.98,1.98h-0.04C46.89,55,46,54.11,46,53.02v-4.08 c0-3.247-2.54-5.94-6-5.94c-3.427,0-6,2.658-6,5.94v10.21C34,71.17,50,66.83,50,79v4h16V71c0-12.17,16-7.83,16-19.85V40.94 C82,37.66,79.28,35,76,35z"/></g><g><path style="fill:#fa9200" d="M50,31v22.02c0,1.09-0.89,1.98-1.98,1.98h-0.04C46.89,55,46,54.11,46,53.02v-4.08 c0-3.247-2.54-5.94-6-5.94c-3.427,0-6,2.658-6,5.94v10.21C34,71.17,50,66.83,50,79v4h8V23C53.58,23,50,26.58,50,31z"/></g></g></g></svg>